<?xml version="1.0" encoding="UTF-8" standalone="no"?>
<!DOCTYPE svg PUBLIC "-//W3C//DTD SVG 1.1//EN" "http://www.w3.org/Graphics/SVG/1.1/DTD/svg11.dtd">
<svg version="1.1" xmlns="http://www.w3.org/2000/svg" xmlns:xlink="http://www.w3.org/1999/xlink" preserveAspectRatio="xMidYMid meet" viewBox="0 0 640 640" width="640" height="640"><defs><path d="M124.74 98.16C110.85 108.15 100.01 126.22 100.01 148.16C100.01 158.32 100.01 239.6 100.01 249.76C100.01 267.25 95.45 274.44 87.94 280.71C80.42 286.98 67.78 291.56 52.69 294.6C42.58 296.74 36.09 306.83 38.19 317.13C39.71 324.56 45.4 330.36 52.69 331.91C67.78 334.95 80.42 339.53 87.94 345.8C95.45 352.06 100.01 359.26 100.01 376.75C100.01 386.91 100.01 468.19 100.01 478.35C100.01 500.29 110.85 518.36 124.74 528.35C138.63 538.35 154.4 541.85 168.56 541.85C178.88 542 187.37 533.59 187.52 523.07C187.66 512.55 179.41 503.9 169.09 503.75C168.91 503.75 168.73 503.75 168.56 503.75C160.94 503.75 151.76 501.42 146.16 497.4C140.57 493.37 137.4 489.22 137.4 478.35C137.4 468.19 137.4 386.91 137.4 376.75C137.4 350.5 127.16 329.13 111.7 316.23C110.08 314.88 108.12 314.44 106.44 313.25C108.12 312.07 110.08 311.63 111.7 310.28C127.16 297.38 137.4 276.01 137.4 249.76C137.4 239.6 137.4 158.32 137.4 148.16C137.4 137.29 140.57 133.14 146.16 129.11C151.76 125.08 160.94 122.76 168.56 122.76C178.88 122.91 187.37 114.5 187.52 103.98C187.66 93.46 179.41 84.81 169.09 84.66C168.91 84.66 168.73 84.66 168.56 84.66C154.4 84.66 138.63 88.16 124.74 98.16ZM448 104.7C448.53 115.22 457.34 123.31 467.66 122.76C467.67 122.76 467.67 122.76 467.67 122.76C475.29 122.76 484.47 125.08 490.07 129.11C495.66 133.14 498.83 137.29 498.83 148.16C498.68 158.68 506.93 167.33 517.26 167.48C527.58 167.63 536.07 159.22 536.22 148.7C536.22 148.52 536.22 148.34 536.22 148.16C536.22 126.22 525.37 108.15 511.49 98.16C497.6 88.16 481.82 84.66 467.67 84.66C467.02 84.63 466.37 84.63 465.72 84.66C455.4 85.21 447.46 94.18 448 104.7ZM515.38 192.41C505.83 193.53 498.67 201.86 498.83 211.66C498.83 215.47 498.83 245.95 498.83 249.76C498.83 276.01 509.07 297.38 524.53 310.28C526.15 311.63 528.11 312.07 529.79 313.25C528.11 314.44 526.15 314.88 524.53 316.23C509.07 329.13 498.83 350.5 498.83 376.75C498.83 386.91 498.83 468.19 498.83 478.35C498.83 489.22 495.66 493.37 490.07 497.4C484.47 501.42 475.29 503.75 467.67 503.75C457.35 503.6 448.86 512.01 448.71 522.53C448.57 533.05 456.82 541.7 467.14 541.85C467.32 541.85 467.49 541.85 467.67 541.85C481.82 541.85 497.6 538.35 511.49 528.35C525.37 518.36 536.22 500.29 536.22 478.35C536.22 468.19 536.22 386.91 536.22 376.75C536.22 359.26 540.78 352.06 548.29 345.8C555.81 339.53 568.45 334.95 583.54 331.91C593.65 329.77 600.14 319.68 598.04 309.38C596.52 301.95 590.83 296.15 583.54 294.6C568.45 291.56 555.81 286.98 548.29 280.71C540.78 274.44 536.22 267.25 536.22 249.76C536.22 245.95 536.22 215.47 536.22 211.66C536.43 201.14 528.24 192.43 517.91 192.21C517.72 192.21 517.52 192.21 517.33 192.21C516.68 192.24 516.03 192.31 515.38 192.41Z" id="djRjPcWQ6"></path></defs><g><g><g><use xlink:href="#djRjPcWQ6" opacity="1" fill="#99038f" fill-opacity="1"></use><g><use xlink:href="#djRjPcWQ6" opacity="1" fill-opacity="0" stroke="#000000" stroke-width="6" stroke-opacity="0"></use></g></g></g></g></svg>